{
    "asset" : {
        "generator" : "Khronos glTF Blender I/O v0.9.36",
        "version" : "2.0"
    },
    "scene" : 0,
    "scenes" : [
        {
            "extras" : {
                "glTF2ExportSettings" : {
                    "export_all_influences" : 1,
                    "export_apply" : 1,
                    "export_current_frame" : 1,
                    "export_extras" : 1,
                    "export_format" : "GLTF_SEPARATE",
                    "export_morph_tangent" : 1,
                    "export_selected" : 1,
                    "export_tangents" : 1
                }
            },
            "name" : "Scene",
            "nodes" : [
                0
            ]
        }
    ],
    "nodes" : [
        {
            "mesh" : 0,
            "name" : "bar",
            "rotation" : [
                0,
                0.7123470902442932,
                0,
                -0.701827347278595
            ],
            "scale" : [
                0.144990935921669,
                0.144990935921669,
                0.144990935921669
            ],
            "translation" : [
                2.0014219284057617,
                0.003708459436893463,
                -0.4657205045223236
            ]
        }
    ],
    "materials" : [
        {
            "doubleSided" : true,
            "name" : "Material.009",
            "pbrMetallicRoughness" : {
                "baseColorTexture" : {
                    "index" : 0,
                    "texCoord" : 0
                },
                "metallicFactor" : 0,
                "roughnessFactor" : 1
            }
        }
    ],
    "meshes" : [
        {
            "name" : "Cube.040",
            "primitives" : [
                {
                    "attributes" : {
                        "POSITION" : 0,
                        "NORMAL" : 1,
                        "TEXCOORD_0" : 2
                    },
                    "indices" : 3,
                    "material" : 0
                }
            ]
        }
    ],
    "textures" : [
        {
            "source" : 0
        }
    ],
    "images" : [
        {
            "mimeType" : "image/png",
            "name" : "house2",
            "uri" : "house2.png"
        }
    ],
    "accessors" : [
        {
            "bufferView" : 0,
            "componentType" : 5126,
            "count" : 1944,
            "max" : [
                14.42192554473877,
                4.6917595863342285,
                1.8025970458984375
            ],
            "min" : [
                -1.744036316871643,
                -0.10380096733570099,
                -4.573851585388184
            ],
            "type" : "VEC3"
        },
        {
            "bufferView" : 1,
            "componentType" : 5126,
            "count" : 1944,
            "type" : "VEC3"
        },
        {
            "bufferView" : 2,
            "componentType" : 5126,
            "count" : 1944,
            "type" : "VEC2"
        },
        {
            "bufferView" : 3,
            "componentType" : 5123,
            "count" : 3552,
            "type" : "SCALAR"
        }
    ],
    "bufferViews" : [
        {
            "buffer" : 0,
            "byteLength" : 23328,
            "byteOffset" : 0
        },
        {
            "buffer" : 0,
            "byteLength" : 23328,
            "byteOffset" : 23328
        },
        {
            "buffer" : 0,
            "byteLength" : 15552,
            "byteOffset" : 46656
        },
        {
            "buffer" : 0,
            "byteLength" : 7104,
            "byteOffset" : 62208
        }
    ],
    "buffers" : [
        {
            "byteLength" : 69312,
            "uri" : "bar.bin"
        }
    ]
}
