{
    "asset" : {
        "generator" : "Khronos glTF Blender I/O v0.9.36",
        "version" : "2.0"
    },
    "scene" : 0,
    "scenes" : [
        {
            "extras" : {
                "glTF2ExportSettings" : {
                    "export_all_influences" : 1,
                    "export_apply" : 1,
                    "export_current_frame" : 1,
                    "export_extras" : 1,
                    "export_format" : "GLTF_SEPARATE",
                    "export_morph_tangent" : 1,
                    "export_selected" : 1,
                    "export_tangents" : 1
                }
            },
            "name" : "Scene",
            "nodes" : [
                0
            ]
        }
    ],
    "nodes" : [
        {
            "mesh" : 0,
            "name" : "big_house",
            "rotation" : [
                0,
                0.9647565484046936,
                0,
                0.26314404606819153
            ],
            "scale" : [
                -0.3708592355251312,
                -0.0174111220985651,
                -0.4334511458873749
            ],
            "translation" : [
                -2.6298699378967285,
                0.42801713943481445,
                -2.0778050422668457
            ]
        }
    ],
    "materials" : [
        {
            "doubleSided" : true,
            "name" : "Material.008",
            "pbrMetallicRoughness" : {
                "baseColorTexture" : {
                    "index" : 0,
                    "texCoord" : 0
                },
                "metallicFactor" : 0,
                "roughnessFactor" : 1
            }
        },
        {
            "doubleSided" : true,
            "name" : "Material.003",
            "pbrMetallicRoughness" : {
                "baseColorTexture" : {
                    "index" : 1,
                    "texCoord" : 0
                },
                "metallicFactor" : 0,
                "roughnessFactor" : 1
            }
        },
        {
            "doubleSided" : true,
            "name" : "Material.004",
            "pbrMetallicRoughness" : {
                "baseColorTexture" : {
                    "index" : 2,
                    "texCoord" : 0
                },
                "metallicFactor" : 0,
                "roughnessFactor" : 1
            }
        },
        {
            "doubleSided" : true,
            "name" : "Material.005",
            "pbrMetallicRoughness" : {
                "baseColorTexture" : {
                    "index" : 3,
                    "texCoord" : 0
                },
                "metallicFactor" : 0,
                "roughnessFactor" : 1
            }
        },
        {
            "doubleSided" : true,
            "name" : "Material.006",
            "pbrMetallicRoughness" : {
                "baseColorTexture" : {
                    "index" : 4,
                    "texCoord" : 0
                },
                "metallicFactor" : 0,
                "roughnessFactor" : 1
            }
        },
        {
            "doubleSided" : true,
            "name" : "Material.007",
            "pbrMetallicRoughness" : {
                "baseColorTexture" : {
                    "index" : 5,
                    "texCoord" : 0
                },
                "metallicFactor" : 0,
                "roughnessFactor" : 1
            }
        }
    ],
    "meshes" : [
        {
            "name" : "Cube.034",
            "primitives" : [
                {
                    "attributes" : {
                        "POSITION" : 0,
                        "NORMAL" : 1,
                        "TEXCOORD_0" : 2
                    },
                    "indices" : 3,
                    "material" : 0
                },
                {
                    "attributes" : {
                        "POSITION" : 4,
                        "NORMAL" : 5,
                        "TEXCOORD_0" : 6
                    },
                    "indices" : 7,
                    "material" : 1
                },
                {
                    "attributes" : {
                        "POSITION" : 8,
                        "NORMAL" : 9,
                        "TEXCOORD_0" : 10
                    },
                    "indices" : 11,
                    "material" : 2
                },
                {
                    "attributes" : {
                        "POSITION" : 12,
                        "NORMAL" : 13,
                        "TEXCOORD_0" : 14
                    },
                    "indices" : 15,
                    "material" : 3
                },
                {
                    "attributes" : {
                        "POSITION" : 16,
                        "NORMAL" : 17,
                        "TEXCOORD_0" : 18
                    },
                    "indices" : 19,
                    "material" : 4
                },
                {
                    "attributes" : {
                        "POSITION" : 20,
                        "NORMAL" : 21,
                        "TEXCOORD_0" : 22
                    },
                    "indices" : 19,
                    "material" : 5
                }
            ]
        }
    ],
    "textures" : [
        {
            "source" : 0
        },
        {
            "source" : 0
        },
        {
            "source" : 0
        },
        {
            "source" : 0
        },
        {
            "source" : 0
        },
        {
            "source" : 0
        }
    ],
    "images" : [
        {
            "mimeType" : "image/png",
            "name" : "lowpolywildhouse1",
            "uri" : "lowpolywildhouse1.png"
        }
    ],
    "accessors" : [
        {
            "bufferView" : 0,
            "componentType" : 5126,
            "count" : 614,
            "max" : [
                8.352261543273926,
                1.0000553131103516,
                8.883071899414062
            ],
            "min" : [
                -1.091176986694336,
                -21.506412506103516,
                -1
            ],
            "type" : "VEC3"
        },
        {
            "bufferView" : 1,
            "componentType" : 5126,
            "count" : 614,
            "type" : "VEC3"
        },
        {
            "bufferView" : 2,
            "componentType" : 5126,
            "count" : 614,
            "type" : "VEC2"
        },
        {
            "bufferView" : 3,
            "componentType" : 5123,
            "count" : 1056,
            "type" : "SCALAR"
        },
        {
            "bufferView" : 4,
            "componentType" : 5126,
            "count" : 3616,
            "max" : [
                8.18393611907959,
                24.69499969482422,
                8.889434814453125
            ],
            "min" : [
                -1.1419774293899536,
                -12.129384994506836,
                -0.8749091029167175
            ],
            "type" : "VEC3"
        },
        {
            "bufferView" : 5,
            "componentType" : 5126,
            "count" : 3616,
            "type" : "VEC3"
        },
        {
            "bufferView" : 6,
            "componentType" : 5126,
            "count" : 3616,
            "type" : "VEC2"
        },
        {
            "bufferView" : 7,
            "componentType" : 5123,
            "count" : 6858,
            "type" : "SCALAR"
        },
        {
            "bufferView" : 8,
            "componentType" : 5126,
            "count" : 480,
            "max" : [
                6.619264602661133,
                20.51731300354004,
                8.442315101623535
            ],
            "min" : [
                -0.5580475926399231,
                11.341120719909668,
                -0.7733590006828308
            ],
            "type" : "VEC3"
        },
        {
            "bufferView" : 9,
            "componentType" : 5126,
            "count" : 480,
            "type" : "VEC3"
        },
        {
            "bufferView" : 10,
            "componentType" : 5126,
            "count" : 480,
            "type" : "VEC2"
        },
        {
            "bufferView" : 11,
            "componentType" : 5123,
            "count" : 720,
            "type" : "SCALAR"
        },
        {
            "bufferView" : 12,
            "componentType" : 5126,
            "count" : 48,
            "max" : [
                6.291385173797607,
                21.512271881103516,
                7.995534420013428
            ],
            "min" : [
                0.058541975915431976,
                21.26445770263672,
                -0.7733590006828308
            ],
            "type" : "VEC3"
        },
        {
            "bufferView" : 13,
            "componentType" : 5126,
            "count" : 48,
            "type" : "VEC3"
        },
        {
            "bufferView" : 14,
            "componentType" : 5126,
            "count" : 48,
            "type" : "VEC2"
        },
        {
            "bufferView" : 15,
            "componentType" : 5123,
            "count" : 72,
            "type" : "SCALAR"
        },
        {
            "bufferView" : 16,
            "componentType" : 5126,
            "count" : 48,
            "max" : [
                6.263617515563965,
                22.521686553955078,
                7.957696437835693
            ],
            "min" : [
                0.1107608899474144,
                22.273874282836914,
                -0.7733590006828308
            ],
            "type" : "VEC3"
        },
        {
            "bufferView" : 17,
            "componentType" : 5126,
            "count" : 48,
            "type" : "VEC3"
        },
        {
            "bufferView" : 18,
            "componentType" : 5126,
            "count" : 48,
            "type" : "VEC2"
        },
        {
            "bufferView" : 19,
            "componentType" : 5123,
            "count" : 72,
            "type" : "SCALAR"
        },
        {
            "bufferView" : 20,
            "componentType" : 5126,
            "count" : 48,
            "max" : [
                6.228186130523682,
                23.516632080078125,
                7.909416675567627
            ],
            "min" : [
                0.17739078402519226,
                23.26881980895996,
                -0.7733590006828308
            ],
            "type" : "VEC3"
        },
        {
            "bufferView" : 21,
            "componentType" : 5126,
            "count" : 48,
            "type" : "VEC3"
        },
        {
            "bufferView" : 22,
            "componentType" : 5126,
            "count" : 48,
            "type" : "VEC2"
        }
    ],
    "bufferViews" : [
        {
            "buffer" : 0,
            "byteLength" : 7368,
            "byteOffset" : 0
        },
        {
            "buffer" : 0,
            "byteLength" : 7368,
            "byteOffset" : 7368
        },
        {
            "buffer" : 0,
            "byteLength" : 4912,
            "byteOffset" : 14736
        },
        {
            "buffer" : 0,
            "byteLength" : 2112,
            "byteOffset" : 19648
        },
        {
            "buffer" : 0,
            "byteLength" : 43392,
            "byteOffset" : 21760
        },
        {
            "buffer" : 0,
            "byteLength" : 43392,
            "byteOffset" : 65152
        },
        {
            "buffer" : 0,
            "byteLength" : 28928,
            "byteOffset" : 108544
        },
        {
            "buffer" : 0,
            "byteLength" : 13716,
            "byteOffset" : 137472
        },
        {
            "buffer" : 0,
            "byteLength" : 5760,
            "byteOffset" : 151188
        },
        {
            "buffer" : 0,
            "byteLength" : 5760,
            "byteOffset" : 156948
        },
        {
            "buffer" : 0,
            "byteLength" : 3840,
            "byteOffset" : 162708
        },
        {
            "buffer" : 0,
            "byteLength" : 1440,
            "byteOffset" : 166548
        },
        {
            "buffer" : 0,
            "byteLength" : 576,
            "byteOffset" : 167988
        },
        {
            "buffer" : 0,
            "byteLength" : 576,
            "byteOffset" : 168564
        },
        {
            "buffer" : 0,
            "byteLength" : 384,
            "byteOffset" : 169140
        },
        {
            "buffer" : 0,
            "byteLength" : 144,
            "byteOffset" : 169524
        },
        {
            "buffer" : 0,
            "byteLength" : 576,
            "byteOffset" : 169668
        },
        {
            "buffer" : 0,
            "byteLength" : 576,
            "byteOffset" : 170244
        },
        {
            "buffer" : 0,
            "byteLength" : 384,
            "byteOffset" : 170820
        },
        {
            "buffer" : 0,
            "byteLength" : 144,
            "byteOffset" : 171204
        },
        {
            "buffer" : 0,
            "byteLength" : 576,
            "byteOffset" : 171348
        },
        {
            "buffer" : 0,
            "byteLength" : 576,
            "byteOffset" : 171924
        },
        {
            "buffer" : 0,
            "byteLength" : 384,
            "byteOffset" : 172500
        }
    ],
    "buffers" : [
        {
            "byteLength" : 172884,
            "uri" : "big_house.bin"
        }
    ]
}
