{
    "asset" : {
        "generator" : "Khronos glTF Blender I/O v0.9.36",
        "version" : "2.0"
    },
    "scene" : 0,
    "scenes" : [
        {
            "extras" : {
                "glTF2ExportSettings" : {
                    "export_all_influences" : 1,
                    "export_apply" : 1,
                    "export_current_frame" : 1,
                    "export_extras" : 1,
                    "export_format" : "GLTF_SEPARATE",
                    "export_morph_tangent" : 1,
                    "export_selected" : 1,
                    "export_tangents" : 1
                }
            },
            "name" : "Scene",
            "nodes" : [
                0
            ]
        }
    ],
    "nodes" : [
        {
            "mesh" : 0,
            "name" : "building_collider",
            "rotation" : [
                0,
                0.2781853675842285,
                0,
                -0.9605274200439453
            ],
            "scale" : [
                0.24071729183197021,
                0.24071729183197021,
                0.24071729183197021
            ],
            "translation" : [
                -3.073155403137207,
                0.22066105902194977,
                -2.578652858734131
            ]
        }
    ],
    "meshes" : [
        {
            "name" : "Cube.035",
            "primitives" : [
                {
                    "attributes" : {
                        "POSITION" : 0,
                        "NORMAL" : 1,
                        "TEXCOORD_0" : 2
                    },
                    "indices" : 3
                }
            ]
        }
    ],
    "accessors" : [
        {
            "bufferView" : 0,
            "componentType" : 5126,
            "count" : 1796,
            "max" : [
                29.962059020996094,
                2.385976791381836,
                16.64619255065918
            ],
            "min" : [
                0.7433201670646667,
                -1.2280352115631104,
                -11.00245189666748
            ],
            "type" : "VEC3"
        },
        {
            "bufferView" : 1,
            "componentType" : 5126,
            "count" : 1796,
            "type" : "VEC3"
        },
        {
            "bufferView" : 2,
            "componentType" : 5126,
            "count" : 1796,
            "type" : "VEC2"
        },
        {
            "bufferView" : 3,
            "componentType" : 5123,
            "count" : 2910,
            "type" : "SCALAR"
        }
    ],
    "bufferViews" : [
        {
            "buffer" : 0,
            "byteLength" : 21552,
            "byteOffset" : 0
        },
        {
            "buffer" : 0,
            "byteLength" : 21552,
            "byteOffset" : 21552
        },
        {
            "buffer" : 0,
            "byteLength" : 14368,
            "byteOffset" : 43104
        },
        {
            "buffer" : 0,
            "byteLength" : 5820,
            "byteOffset" : 57472
        }
    ],
    "buffers" : [
        {
            "byteLength" : 63292,
            "uri" : "collider.bin"
        }
    ]
}
