{
    "asset" : {
        "generator" : "Khronos glTF Blender I/O v0.9.36",
        "version" : "2.0"
    },
    "scene" : 0,
    "scenes" : [
        {
            "extras" : {
                "glTF2ExportSettings" : {
                    "export_all_influences" : 1,
                    "export_apply" : 1,
                    "export_current_frame" : 1,
                    "export_extras" : 1,
                    "export_format" : "GLTF_SEPARATE",
                    "export_morph_tangent" : 1,
                    "export_selected" : 1,
                    "export_tangents" : 1
                }
            },
            "name" : "Scene",
            "nodes" : [
                0
            ]
        }
    ],
    "nodes" : [
        {
            "mesh" : 0,
            "name" : "fan",
            "rotation" : [
                -0.6935243606567383,
                0.13375025987625122,
                -0.13792771100997925,
                -0.6943419575691223
            ],
            "scale" : [
                0.5163044929504395,
                0.5163044929504395,
                0.5163044929504395
            ],
            "translation" : [
                1.8946818113327026,
                1.0868568420410156,
                -1.6981124877929688
            ]
        }
    ],
    "animations" : [
        {
            "channels" : [
                {
                    "sampler" : 0,
                    "target" : {
                        "node" : 0,
                        "path" : "rotation"
                    }
                }
            ],
            "name" : "fan_rotate",
            "samplers" : [
                {
                    "input" : 5,
                    "interpolation" : "CUBICSPLINE",
                    "output" : 6
                }
            ]
        }
    ],
    "materials" : [
        {
            "doubleSided" : true,
            "name" : "None.001",
            "pbrMetallicRoughness" : {
                "baseColorTexture" : {
                    "index" : 0,
                    "texCoord" : 0
                },
                "metallicFactor" : 0,
                "roughnessFactor" : 1
            }
        }
    ],
    "meshes" : [
        {
            "name" : "windmill.001",
            "primitives" : [
                {
                    "attributes" : {
                        "POSITION" : 0,
                        "NORMAL" : 1,
                        "TANGENT" : 2,
                        "TEXCOORD_0" : 3
                    },
                    "indices" : 4,
                    "material" : 0
                }
            ]
        }
    ],
    "textures" : [
        {
            "source" : 0
        }
    ],
    "images" : [
        {
            "mimeType" : "image/png",
            "name" : "PUSHILIN_windmill",
            "uri" : "PUSHILIN_windmill.png"
        }
    ],
    "accessors" : [
        {
            "bufferView" : 0,
            "componentType" : 5126,
            "count" : 330,
            "max" : [
                0.8100748658180237,
                0.11165624856948853,
                0.8095700740814209
            ],
            "min" : [
                -0.8151641488075256,
                -0.11960276961326599,
                -0.8117219805717468
            ],
            "type" : "VEC3"
        },
        {
            "bufferView" : 1,
            "componentType" : 5126,
            "count" : 330,
            "type" : "VEC3"
        },
        {
            "bufferView" : 2,
            "componentType" : 5126,
            "count" : 330,
            "type" : "VEC4"
        },
        {
            "bufferView" : 3,
            "componentType" : 5126,
            "count" : 330,
            "type" : "VEC2"
        },
        {
            "bufferView" : 4,
            "componentType" : 5123,
            "count" : 486,
            "type" : "SCALAR"
        },
        {
            "bufferView" : 5,
            "componentType" : 5126,
            "count" : 2,
            "max" : [
                41.708333333333336
            ],
            "min" : [
                0
            ],
            "type" : "SCALAR"
        },
        {
            "bufferView" : 6,
            "componentType" : 5126,
            "count" : 6,
            "type" : "VEC4"
        }
    ],
    "bufferViews" : [
        {
            "buffer" : 0,
            "byteLength" : 3960,
            "byteOffset" : 0
        },
        {
            "buffer" : 0,
            "byteLength" : 3960,
            "byteOffset" : 3960
        },
        {
            "buffer" : 0,
            "byteLength" : 5280,
            "byteOffset" : 7920
        },
        {
            "buffer" : 0,
            "byteLength" : 2640,
            "byteOffset" : 13200
        },
        {
            "buffer" : 0,
            "byteLength" : 972,
            "byteOffset" : 15840
        },
        {
            "buffer" : 0,
            "byteLength" : 8,
            "byteOffset" : 16812
        },
        {
            "buffer" : 0,
            "byteLength" : 96,
            "byteOffset" : 16820
        }
    ],
    "buffers" : [
        {
            "byteLength" : 16916,
            "uri" : "fan.bin"
        }
    ]
}
