{
    "asset" : {
        "generator" : "Khronos glTF Blender I/O v0.9.36",
        "version" : "2.0"
    },
    "scene" : 0,
    "scenes" : [
        {
            "extras" : {
                "glTF2ExportSettings" : {
                    "export_all_influences" : 1,
                    "export_apply" : 1,
                    "export_current_frame" : 1,
                    "export_extras" : 1,
                    "export_format" : "GLTF_SEPARATE",
                    "export_morph_tangent" : 1,
                    "export_selected" : 1,
                    "export_tangents" : 1
                }
            },
            "name" : "Scene",
            "nodes" : [
                0
            ]
        }
    ],
    "nodes" : [
        {
            "mesh" : 0,
            "name" : "land",
            "scale" : [
                4.050836563110352,
                4.050836563110352,
                4.050836563110352
            ]
        }
    ],
    "materials" : [
        {
            "doubleSided" : true,
            "name" : "ground green",
            "pbrMetallicRoughness" : {
                "baseColorTexture" : {
                    "index" : 0,
                    "texCoord" : 0
                },
                "metallicFactor" : 0,
                "roughnessFactor" : 1
            }
        }
    ],
    "meshes" : [
        {
            "name" : "Grid",
            "primitives" : [
                {
                    "attributes" : {
                        "POSITION" : 0,
                        "NORMAL" : 1,
                        "TEXCOORD_0" : 2
                    },
                    "indices" : 3,
                    "material" : 0
                }
            ]
        }
    ],
    "textures" : [
        {
            "source" : 0
        }
    ],
    "images" : [
        {
            "mimeType" : "image/png",
            "name" : "grass",
            "uri" : "grass.png"
        }
    ],
    "accessors" : [
        {
            "bufferView" : 0,
            "componentType" : 5126,
            "count" : 546,
            "max" : [
                1,
                0.014537452720105648,
                1
            ],
            "min" : [
                -1,
                -0.05823777988553047,
                -1
            ],
            "type" : "VEC3"
        },
        {
            "bufferView" : 1,
            "componentType" : 5126,
            "count" : 546,
            "type" : "VEC3"
        },
        {
            "bufferView" : 2,
            "componentType" : 5126,
            "count" : 546,
            "type" : "VEC2"
        },
        {
            "bufferView" : 3,
            "componentType" : 5123,
            "count" : 1350,
            "type" : "SCALAR"
        }
    ],
    "bufferViews" : [
        {
            "buffer" : 0,
            "byteLength" : 6552,
            "byteOffset" : 0
        },
        {
            "buffer" : 0,
            "byteLength" : 6552,
            "byteOffset" : 6552
        },
        {
            "buffer" : 0,
            "byteLength" : 4368,
            "byteOffset" : 13104
        },
        {
            "buffer" : 0,
            "byteLength" : 2700,
            "byteOffset" : 17472
        }
    ],
    "buffers" : [
        {
            "byteLength" : 20172,
            "uri" : "land.bin"
        }
    ]
}
