{
    "asset" : {
        "generator" : "Khronos glTF Blender I/O v0.9.36",
        "version" : "2.0"
    },
    "scene" : 0,
    "scenes" : [
        {
            "extras" : {
                "glTF2ExportSettings" : {
                    "export_all_influences" : 1,
                    "export_apply" : 1,
                    "export_current_frame" : 1,
                    "export_extras" : 1,
                    "export_format" : "GLTF_SEPARATE",
                    "export_morph_tangent" : 1,
                    "export_selected" : 1,
                    "export_tangents" : 1
                }
            },
            "name" : "Scene",
            "nodes" : [
                0
            ]
        }
    ],
    "nodes" : [
        {
            "mesh" : 0,
            "name" : "node-0.006",
            "rotation" : [
                0.7071068286895752,
                0,
                0,
                0.7071067094802856
            ],
            "scale" : [
                0.01883067935705185,
                0.018830683082342148,
                0.018830683082342148
            ],
            "translation" : [
                -2.29262113571167,
                -0.006408117711544037,
                1.6677712202072144
            ]
        }
    ],
    "materials" : [
        {
            "doubleSided" : true,
            "name" : "Houseplant_mat1",
            "pbrMetallicRoughness" : {
                "baseColorFactor" : [
                    0.5,
                    0.5,
                    0.5,
                    1
                ],
                "baseColorTexture" : {
                    "index" : 0,
                    "texCoord" : 0
                },
                "metallicFactor" : 0,
                "roughnessFactor" : 0.9699476361274719
            }
        }
    ],
    "meshes" : [
        {
            "name" : "buffer-0-mesh-0.010",
            "primitives" : [
                {
                    "attributes" : {
                        "POSITION" : 0,
                        "NORMAL" : 1,
                        "TANGENT" : 2,
                        "TEXCOORD_0" : 3
                    },
                    "indices" : 4,
                    "material" : 0
                }
            ]
        }
    ],
    "textures" : [
        {
            "source" : 0
        }
    ],
    "images" : [
        {
            "mimeType" : "image/png",
            "name" : "Houseplant_BaseColor",
            "uri" : "Houseplant_BaseColor.png"
        }
    ],
    "accessors" : [
        {
            "bufferView" : 0,
            "componentType" : 5126,
            "count" : 9576,
            "max" : [
                14.329060554504395,
                2.4017789363861084,
                0
            ],
            "min" : [
                -24.001768112182617,
                -203.3837127685547,
                -6.274200439453125
            ],
            "type" : "VEC3"
        },
        {
            "bufferView" : 1,
            "componentType" : 5126,
            "count" : 9576,
            "type" : "VEC3"
        },
        {
            "bufferView" : 2,
            "componentType" : 5126,
            "count" : 9576,
            "type" : "VEC4"
        },
        {
            "bufferView" : 3,
            "componentType" : 5126,
            "count" : 9576,
            "type" : "VEC2"
        },
        {
            "bufferView" : 4,
            "componentType" : 5123,
            "count" : 9576,
            "type" : "SCALAR"
        }
    ],
    "bufferViews" : [
        {
            "buffer" : 0,
            "byteLength" : 114912,
            "byteOffset" : 0
        },
        {
            "buffer" : 0,
            "byteLength" : 114912,
            "byteOffset" : 114912
        },
        {
            "buffer" : 0,
            "byteLength" : 153216,
            "byteOffset" : 229824
        },
        {
            "buffer" : 0,
            "byteLength" : 76608,
            "byteOffset" : 383040
        },
        {
            "buffer" : 0,
            "byteLength" : 19152,
            "byteOffset" : 459648
        }
    ],
    "buffers" : [
        {
            "byteLength" : 478800,
            "uri" : "plant.bin"
        }
    ]
}
