{
    "asset" : {
        "generator" : "Khronos glTF Blender I/O v0.9.36",
        "version" : "2.0"
    },
    "scene" : 0,
    "scenes" : [
        {
            "extras" : {
                "glTF2ExportSettings" : {
                    "export_all_influences" : 1,
                    "export_apply" : 1,
                    "export_current_frame" : 1,
                    "export_extras" : 1,
                    "export_format" : "GLTF_SEPARATE",
                    "export_morph_tangent" : 1,
                    "export_selected" : 1,
                    "export_tangents" : 1
                }
            },
            "name" : "Scene",
            "nodes" : [
                0
            ]
        }
    ],
    "nodes" : [
        {
            "mesh" : 0,
            "name" : "run_building",
            "rotation" : [
                0,
                -0.707040011882782,
                0,
                0.7071735262870789
            ],
            "scale" : [
                0.16693006455898285,
                0.12789301574230194,
                0.16693006455898285
            ],
            "translation" : [
                3.246049642562866,
                0,
                0.14503979682922363
            ]
        }
    ],
    "materials" : [
        {
            "doubleSided" : true,
            "name" : "Material.001",
            "pbrMetallicRoughness" : {
                "baseColorTexture" : {
                    "index" : 0,
                    "texCoord" : 0
                },
                "metallicFactor" : 0,
                "roughnessFactor" : 1
            }
        }
    ],
    "meshes" : [
        {
            "name" : "Cube.001",
            "primitives" : [
                {
                    "attributes" : {
                        "POSITION" : 0,
                        "NORMAL" : 1,
                        "TEXCOORD_0" : 2
                    },
                    "indices" : 3,
                    "material" : 0
                }
            ]
        }
    ],
    "textures" : [
        {
            "source" : 0
        }
    ],
    "images" : [
        {
            "mimeType" : "image/png",
            "name" : "lowpolywildhouse1",
            "uri" : "lowpolywildhouse1.png"
        }
    ],
    "accessors" : [
        {
            "bufferView" : 0,
            "componentType" : 5126,
            "count" : 2482,
            "max" : [
                9.942463874816895,
                6.065701007843018,
                13.641966819763184
            ],
            "min" : [
                -2.6014862060546875,
                0.09637968987226486,
                -2.5519678592681885
            ],
            "type" : "VEC3"
        },
        {
            "bufferView" : 1,
            "componentType" : 5126,
            "count" : 2482,
            "type" : "VEC3"
        },
        {
            "bufferView" : 2,
            "componentType" : 5126,
            "count" : 2482,
            "type" : "VEC2"
        },
        {
            "bufferView" : 3,
            "componentType" : 5123,
            "count" : 4080,
            "type" : "SCALAR"
        }
    ],
    "bufferViews" : [
        {
            "buffer" : 0,
            "byteLength" : 29784,
            "byteOffset" : 0
        },
        {
            "buffer" : 0,
            "byteLength" : 29784,
            "byteOffset" : 29784
        },
        {
            "buffer" : 0,
            "byteLength" : 19856,
            "byteOffset" : 59568
        },
        {
            "buffer" : 0,
            "byteLength" : 8160,
            "byteOffset" : 79424
        }
    ],
    "buffers" : [
        {
            "byteLength" : 87584,
            "uri" : "rum_building.bin"
        }
    ]
}
