{
    "asset" : {
        "generator" : "Khronos glTF Blender I/O v0.9.36",
        "version" : "2.0"
    },
    "scene" : 0,
    "scenes" : [
        {
            "extras" : {
                "glTF2ExportSettings" : {
                    "export_all_influences" : 1,
                    "export_apply" : 1,
                    "export_current_frame" : 1,
                    "export_extras" : 1,
                    "export_format" : "GLTF_SEPARATE",
                    "export_morph_tangent" : 1,
                    "export_selected" : 1,
                    "export_tangents" : 1
                }
            },
            "name" : "Scene",
            "nodes" : [
                0
            ]
        }
    ],
    "nodes" : [
        {
            "mesh" : 0,
            "name" : "small_house",
            "rotation" : [
                0,
                -1,
                0,
                1.9470718370939721e-07
            ],
            "scale" : [
                0.1802975982427597,
                0.1802975982427597,
                0.1802975982427597
            ],
            "translation" : [
                -3.043971061706543,
                0.18190011382102966,
                -0.38312822580337524
            ]
        }
    ],
    "materials" : [
        {
            "doubleSided" : true,
            "name" : "Material.002",
            "pbrMetallicRoughness" : {
                "baseColorTexture" : {
                    "index" : 0,
                    "texCoord" : 0
                },
                "metallicFactor" : 0,
                "roughnessFactor" : 1
            }
        }
    ],
    "meshes" : [
        {
            "name" : "Cube.031",
            "primitives" : [
                {
                    "attributes" : {
                        "POSITION" : 0,
                        "NORMAL" : 1,
                        "TEXCOORD_0" : 2
                    },
                    "indices" : 3,
                    "material" : 0
                }
            ]
        }
    ],
    "textures" : [
        {
            "source" : 0
        }
    ],
    "images" : [
        {
            "mimeType" : "image/png",
            "name" : "lowpolywildhouse1",
            "uri" : "lowpolywildhouse1.png"
        }
    ],
    "accessors" : [
        {
            "bufferView" : 0,
            "componentType" : 5126,
            "count" : 4014,
            "max" : [
                1.5027570724487305,
                2.1087238788604736,
                1.4557543992996216
            ],
            "min" : [
                -11.502310752868652,
                -1.0281925201416016,
                -14.84114933013916
            ],
            "type" : "VEC3"
        },
        {
            "bufferView" : 1,
            "componentType" : 5126,
            "count" : 4014,
            "type" : "VEC3"
        },
        {
            "bufferView" : 2,
            "componentType" : 5126,
            "count" : 4014,
            "type" : "VEC2"
        },
        {
            "bufferView" : 3,
            "componentType" : 5123,
            "count" : 6948,
            "type" : "SCALAR"
        }
    ],
    "bufferViews" : [
        {
            "buffer" : 0,
            "byteLength" : 48168,
            "byteOffset" : 0
        },
        {
            "buffer" : 0,
            "byteLength" : 48168,
            "byteOffset" : 48168
        },
        {
            "buffer" : 0,
            "byteLength" : 32112,
            "byteOffset" : 96336
        },
        {
            "buffer" : 0,
            "byteLength" : 13896,
            "byteOffset" : 128448
        }
    ],
    "buffers" : [
        {
            "byteLength" : 142344,
            "uri" : "small_house.bin"
        }
    ]
}
