{
    "asset" : {
        "generator" : "Khronos glTF Blender I/O v0.9.36",
        "version" : "2.0"
    },
    "scene" : 0,
    "scenes" : [
        {
            "extras" : {
                "glTF2ExportSettings" : {
                    "export_all_influences" : 1,
                    "export_apply" : 1,
                    "export_current_frame" : 1,
                    "export_extras" : 1,
                    "export_format" : "GLTF_SEPARATE",
                    "export_morph_tangent" : 1,
                    "export_selected" : 1,
                    "export_tangents" : 1
                }
            },
            "name" : "Scene",
            "nodes" : [
                0
            ]
        }
    ],
    "nodes" : [
        {
            "mesh" : 0,
            "name" : "trees",
            "rotation" : [
                0.7071068286895752,
                0,
                0,
                0.7071067094802856
            ],
            "translation" : [
                2.660254716873169,
                0.24686479568481445,
                -0.8002359867095947
            ]
        }
    ],
    "materials" : [
        {
            "doubleSided" : true,
            "name" : "None",
            "pbrMetallicRoughness" : {
                "baseColorTexture" : {
                    "index" : 0,
                    "texCoord" : 0
                },
                "metallicFactor" : 0,
                "roughnessFactor" : 1
            }
        },
        {
            "doubleSided" : true,
            "name" : "Mat",
            "pbrMetallicRoughness" : {
                "baseColorTexture" : {
                    "index" : 1,
                    "texCoord" : 0
                },
                "metallicFactor" : 0,
                "roughnessFactor" : 0.9699476361274719
            }
        }
    ],
    "meshes" : [
        {
            "name" : "forest.003",
            "primitives" : [
                {
                    "attributes" : {
                        "POSITION" : 0,
                        "NORMAL" : 1,
                        "TANGENT" : 2,
                        "TEXCOORD_0" : 3,
                        "TEXCOORD_1" : 4
                    },
                    "indices" : 5,
                    "material" : 0
                },
                {
                    "attributes" : {
                        "POSITION" : 6,
                        "NORMAL" : 7,
                        "TANGENT" : 8,
                        "TEXCOORD_0" : 9,
                        "TEXCOORD_1" : 10
                    },
                    "indices" : 11,
                    "material" : 1
                }
            ]
        }
    ],
    "textures" : [
        {
            "source" : 0
        },
        {
            "source" : 1
        }
    ],
    "images" : [
        {
            "mimeType" : "image/png",
            "name" : "PUSHILIN_forest",
            "uri" : "PUSHILIN_forest.png"
        },
        {
            "mimeType" : "image/png",
            "name" : "tree_texture",
            "uri" : "tree_texture.png"
        }
    ],
    "accessors" : [
        {
            "bufferView" : 0,
            "componentType" : 5126,
            "count" : 1808,
            "max" : [
                0.5742795467376709,
                3.9649569988250732,
                0.30083271861076355
            ],
            "min" : [
                -6.275324821472168,
                -3.0665547847747803,
                -0.7104960083961487
            ],
            "type" : "VEC3"
        },
        {
            "bufferView" : 1,
            "componentType" : 5126,
            "count" : 1808,
            "type" : "VEC3"
        },
        {
            "bufferView" : 2,
            "componentType" : 5126,
            "count" : 1808,
            "type" : "VEC4"
        },
        {
            "bufferView" : 3,
            "componentType" : 5126,
            "count" : 1808,
            "type" : "VEC2"
        },
        {
            "bufferView" : 4,
            "componentType" : 5126,
            "count" : 1808,
            "type" : "VEC2"
        },
        {
            "bufferView" : 5,
            "componentType" : 5123,
            "count" : 1992,
            "type" : "SCALAR"
        },
        {
            "bufferView" : 6,
            "componentType" : 5126,
            "count" : 2355,
            "max" : [
                0.6079941391944885,
                1.5307276248931885,
                0.29138171672821045
            ],
            "min" : [
                -5.87733793258667,
                -2.990859270095825,
                -0.779900848865509
            ],
            "type" : "VEC3"
        },
        {
            "bufferView" : 7,
            "componentType" : 5126,
            "count" : 2355,
            "type" : "VEC3"
        },
        {
            "bufferView" : 8,
            "componentType" : 5126,
            "count" : 2355,
            "type" : "VEC4"
        },
        {
            "bufferView" : 9,
            "componentType" : 5126,
            "count" : 2355,
            "type" : "VEC2"
        },
        {
            "bufferView" : 10,
            "componentType" : 5126,
            "count" : 2355,
            "type" : "VEC2"
        },
        {
            "bufferView" : 11,
            "componentType" : 5123,
            "count" : 2355,
            "type" : "SCALAR"
        }
    ],
    "bufferViews" : [
        {
            "buffer" : 0,
            "byteLength" : 21696,
            "byteOffset" : 0
        },
        {
            "buffer" : 0,
            "byteLength" : 21696,
            "byteOffset" : 21696
        },
        {
            "buffer" : 0,
            "byteLength" : 28928,
            "byteOffset" : 43392
        },
        {
            "buffer" : 0,
            "byteLength" : 14464,
            "byteOffset" : 72320
        },
        {
            "buffer" : 0,
            "byteLength" : 14464,
            "byteOffset" : 86784
        },
        {
            "buffer" : 0,
            "byteLength" : 3984,
            "byteOffset" : 101248
        },
        {
            "buffer" : 0,
            "byteLength" : 28260,
            "byteOffset" : 105232
        },
        {
            "buffer" : 0,
            "byteLength" : 28260,
            "byteOffset" : 133492
        },
        {
            "buffer" : 0,
            "byteLength" : 37680,
            "byteOffset" : 161752
        },
        {
            "buffer" : 0,
            "byteLength" : 18840,
            "byteOffset" : 199432
        },
        {
            "buffer" : 0,
            "byteLength" : 18840,
            "byteOffset" : 218272
        },
        {
            "buffer" : 0,
            "byteLength" : 4710,
            "byteOffset" : 237112
        }
    ],
    "buffers" : [
        {
            "byteLength" : 241824,
            "uri" : "trees.bin"
        }
    ]
}
