{
    "asset" : {
        "generator" : "Khronos glTF Blender I/O v0.9.36",
        "version" : "2.0"
    },
    "scene" : 0,
    "scenes" : [
        {
            "extras" : {
                "glTF2ExportSettings" : {
                    "export_all_influences" : 1,
                    "export_apply" : 1,
                    "export_current_frame" : 1,
                    "export_extras" : 1,
                    "export_format" : "GLTF_SEPARATE",
                    "export_morph_tangent" : 1,
                    "export_selected" : 1,
                    "export_tangents" : 1
                }
            },
            "name" : "Scene",
            "nodes" : [
                0
            ]
        }
    ],
    "nodes" : [
        {
            "mesh" : 0,
            "name" : "windmill",
            "rotation" : [
                0.6939363479614258,
                -0.135839581489563,
                0.13583959639072418,
                0.6939362287521362
            ],
            "scale" : [
                0.5163044929504395,
                0.5163044929504395,
                0.5163044929504395
            ],
            "translation" : [
                1.9595614671707153,
                0.8113969564437866,
                -1.8848342895507812
            ]
        }
    ],
    "materials" : [
        {
            "doubleSided" : true,
            "name" : "None.001",
            "pbrMetallicRoughness" : {
                "baseColorTexture" : {
                    "index" : 0,
                    "texCoord" : 0
                },
                "metallicFactor" : 0,
                "roughnessFactor" : 1
            }
        },
        {
            "doubleSided" : true,
            "name" : "green",
            "pbrMetallicRoughness" : {
                "baseColorTexture" : {
                    "index" : 1,
                    "texCoord" : 0
                },
                "metallicFactor" : 0,
                "roughnessFactor" : 1
            }
        },
        {
            "doubleSided" : true,
            "name" : "brown",
            "pbrMetallicRoughness" : {
                "baseColorTexture" : {
                    "index" : 2,
                    "texCoord" : 0
                },
                "metallicFactor" : 0,
                "roughnessFactor" : 1
            }
        },
        {
            "doubleSided" : true,
            "name" : "Houseplant_mat1",
            "pbrMetallicRoughness" : {
                "baseColorFactor" : [
                    0.5,
                    0.5,
                    0.5,
                    1
                ],
                "baseColorTexture" : {
                    "index" : 3,
                    "texCoord" : 0
                },
                "metallicFactor" : 0,
                "roughnessFactor" : 0.9699476361274719
            }
        }
    ],
    "meshes" : [
        {
            "name" : "windmill",
            "primitives" : [
                {
                    "attributes" : {
                        "POSITION" : 0,
                        "NORMAL" : 1,
                        "TANGENT" : 2,
                        "TEXCOORD_0" : 3,
                        "TEXCOORD_1" : 4
                    },
                    "indices" : 5,
                    "material" : 0
                },
                {
                    "attributes" : {
                        "POSITION" : 6,
                        "NORMAL" : 7,
                        "TANGENT" : 8,
                        "TEXCOORD_0" : 9,
                        "TEXCOORD_1" : 10
                    },
                    "indices" : 11,
                    "material" : 1
                },
                {
                    "attributes" : {
                        "POSITION" : 12,
                        "NORMAL" : 13,
                        "TANGENT" : 14,
                        "TEXCOORD_0" : 15,
                        "TEXCOORD_1" : 16
                    },
                    "indices" : 17,
                    "material" : 2
                },
                {
                    "attributes" : {
                        "POSITION" : 18,
                        "NORMAL" : 19,
                        "TANGENT" : 20,
                        "TEXCOORD_0" : 21,
                        "TEXCOORD_1" : 22
                    },
                    "indices" : 23,
                    "material" : 3
                }
            ]
        }
    ],
    "textures" : [
        {
            "source" : 0
        },
        {
            "source" : 1
        },
        {
            "source" : 2
        },
        {
            "source" : 3
        }
    ],
    "images" : [
        {
            "mimeType" : "image/png",
            "name" : "PUSHILIN_windmill",
            "uri" : "PUSHILIN_windmill.png"
        },
        {
            "mimeType" : "image/png",
            "name" : "grass",
            "uri" : "grass.png"
        },
        {
            "mimeType" : "image/jpeg",
            "name" : "soil_mud_0007_01_preview",
            "uri" : "soil_mud_0007_01_preview.jpg"
        },
        {
            "mimeType" : "image/png",
            "name" : "Houseplant_BaseColor",
            "uri" : "Houseplant_BaseColor.png"
        }
    ],
    "accessors" : [
        {
            "bufferView" : 0,
            "componentType" : 5126,
            "count" : 828,
            "max" : [
                0.8167660236358643,
                0.578245997428894,
                1.0164819955825806
            ],
            "min" : [
                -0.5637909770011902,
                -0.7833840250968933,
                -1.2369539737701416
            ],
            "type" : "VEC3"
        },
        {
            "bufferView" : 1,
            "componentType" : 5126,
            "count" : 828,
            "type" : "VEC3"
        },
        {
            "bufferView" : 2,
            "componentType" : 5126,
            "count" : 828,
            "type" : "VEC4"
        },
        {
            "bufferView" : 3,
            "componentType" : 5126,
            "count" : 828,
            "type" : "VEC2"
        },
        {
            "bufferView" : 4,
            "componentType" : 5126,
            "count" : 828,
            "type" : "VEC2"
        },
        {
            "bufferView" : 5,
            "componentType" : 5123,
            "count" : 1230,
            "type" : "SCALAR"
        },
        {
            "bufferView" : 6,
            "componentType" : 5126,
            "count" : 92,
            "max" : [
                1.1113168001174927,
                1.524577260017395,
                1.6384868621826172
            ],
            "min" : [
                -0.9000785946846008,
                -1.164231777191162,
                0.932606041431427
            ],
            "type" : "VEC3"
        },
        {
            "bufferView" : 7,
            "componentType" : 5126,
            "count" : 92,
            "type" : "VEC3"
        },
        {
            "bufferView" : 8,
            "componentType" : 5126,
            "count" : 92,
            "type" : "VEC4"
        },
        {
            "bufferView" : 9,
            "componentType" : 5126,
            "count" : 92,
            "type" : "VEC2"
        },
        {
            "bufferView" : 10,
            "componentType" : 5126,
            "count" : 92,
            "type" : "VEC2"
        },
        {
            "bufferView" : 11,
            "componentType" : 5123,
            "count" : 138,
            "type" : "SCALAR"
        },
        {
            "bufferView" : 12,
            "componentType" : 5126,
            "count" : 244,
            "max" : [
                1.1113168001174927,
                1.524577260017395,
                1.6921443939208984
            ],
            "min" : [
                -0.9000785946846008,
                -1.164231777191162,
                0.9714903831481934
            ],
            "type" : "VEC3"
        },
        {
            "bufferView" : 13,
            "componentType" : 5126,
            "count" : 244,
            "type" : "VEC3"
        },
        {
            "bufferView" : 14,
            "componentType" : 5126,
            "count" : 244,
            "type" : "VEC4"
        },
        {
            "bufferView" : 15,
            "componentType" : 5126,
            "count" : 244,
            "type" : "VEC2"
        },
        {
            "bufferView" : 16,
            "componentType" : 5126,
            "count" : 244,
            "type" : "VEC2"
        },
        {
            "bufferView" : 17,
            "componentType" : 5123,
            "count" : 366,
            "type" : "SCALAR"
        },
        {
            "bufferView" : 18,
            "componentType" : 5126,
            "count" : 4806,
            "max" : [
                0.8062779307365417,
                0.9506572484970093,
                1.1522955894470215
            ],
            "min" : [
                -0.47832340002059937,
                0.410489559173584,
                0.866956353187561
            ],
            "type" : "VEC3"
        },
        {
            "bufferView" : 19,
            "componentType" : 5126,
            "count" : 4806,
            "type" : "VEC3"
        },
        {
            "bufferView" : 20,
            "componentType" : 5126,
            "count" : 4806,
            "type" : "VEC4"
        },
        {
            "bufferView" : 21,
            "componentType" : 5126,
            "count" : 4806,
            "type" : "VEC2"
        },
        {
            "bufferView" : 22,
            "componentType" : 5126,
            "count" : 4806,
            "type" : "VEC2"
        },
        {
            "bufferView" : 23,
            "componentType" : 5123,
            "count" : 4806,
            "type" : "SCALAR"
        }
    ],
    "bufferViews" : [
        {
            "buffer" : 0,
            "byteLength" : 9936,
            "byteOffset" : 0
        },
        {
            "buffer" : 0,
            "byteLength" : 9936,
            "byteOffset" : 9936
        },
        {
            "buffer" : 0,
            "byteLength" : 13248,
            "byteOffset" : 19872
        },
        {
            "buffer" : 0,
            "byteLength" : 6624,
            "byteOffset" : 33120
        },
        {
            "buffer" : 0,
            "byteLength" : 6624,
            "byteOffset" : 39744
        },
        {
            "buffer" : 0,
            "byteLength" : 2460,
            "byteOffset" : 46368
        },
        {
            "buffer" : 0,
            "byteLength" : 1104,
            "byteOffset" : 48828
        },
        {
            "buffer" : 0,
            "byteLength" : 1104,
            "byteOffset" : 49932
        },
        {
            "buffer" : 0,
            "byteLength" : 1472,
            "byteOffset" : 51036
        },
        {
            "buffer" : 0,
            "byteLength" : 736,
            "byteOffset" : 52508
        },
        {
            "buffer" : 0,
            "byteLength" : 736,
            "byteOffset" : 53244
        },
        {
            "buffer" : 0,
            "byteLength" : 276,
            "byteOffset" : 53980
        },
        {
            "buffer" : 0,
            "byteLength" : 2928,
            "byteOffset" : 54256
        },
        {
            "buffer" : 0,
            "byteLength" : 2928,
            "byteOffset" : 57184
        },
        {
            "buffer" : 0,
            "byteLength" : 3904,
            "byteOffset" : 60112
        },
        {
            "buffer" : 0,
            "byteLength" : 1952,
            "byteOffset" : 64016
        },
        {
            "buffer" : 0,
            "byteLength" : 1952,
            "byteOffset" : 65968
        },
        {
            "buffer" : 0,
            "byteLength" : 732,
            "byteOffset" : 67920
        },
        {
            "buffer" : 0,
            "byteLength" : 57672,
            "byteOffset" : 68652
        },
        {
            "buffer" : 0,
            "byteLength" : 57672,
            "byteOffset" : 126324
        },
        {
            "buffer" : 0,
            "byteLength" : 76896,
            "byteOffset" : 183996
        },
        {
            "buffer" : 0,
            "byteLength" : 38448,
            "byteOffset" : 260892
        },
        {
            "buffer" : 0,
            "byteLength" : 38448,
            "byteOffset" : 299340
        },
        {
            "buffer" : 0,
            "byteLength" : 9612,
            "byteOffset" : 337788
        }
    ],
    "buffers" : [
        {
            "byteLength" : 347400,
            "uri" : "windmill.bin"
        }
    ]
}
